<svg xmlns="http://www.w3.org/2000/svg">
  <!-- calendar -->
  <symbol id="calendar" viewBox="0 0 24 24">
    <path d="M21,3h-2V2.5C19,1.1,17.9,0,16.5,0S14,1.1,14,2.5V3h-4V2.5C10,1.1,8.9,0,7.5,0S5,1.1,5,2.5V3H3C1.9,3,1,3.9,1,5v17
      c0,1.1,0.9,2,2,2h18c1.1,0,2-0.9,2-2V5C23,3.9,22.1,3,21,3z M15.5,2.5c0-0.5,0.5-1,1-1c0.6,0,1,0.5,1,1v3c0,0.6-0.5,1-1,1
      c-0.5,0-1-0.5-1-1V2.5z M6.5,2.5c0-0.5,0.5-1,1-1c0.6,0,1,0.5,1,1v3c0,0.6-0.5,1-1,1c-0.5,0-1-0.5-1-1V2.5z M21,22H3V8h18V22z"/>
  </symbol>
</svg>